<svg xmlns="http://www.w3.org/2000/svg" version="1.1" xmlns:xlink="http://www.w3.org/1999/xlink" xmlns:svgjs="http://svgjs.dev/svgjs" width="1000" height="272" viewBox="0 0 1000 272"><g transform="matrix(1,0,0,1,-0.6060606060606233,-0.012047886602488234)"><svg viewBox="0 0 396 108" data-background-color="#1f1f1f" preserveAspectRatio="xMidYMid meet" height="272" width="1000" xmlns="http://www.w3.org/2000/svg" xmlns:xlink="http://www.w3.org/1999/xlink"><g id="tight-bounds" transform="matrix(1,0,0,1,0.2400000000000091,0.0047837196804039195)"><svg viewBox="0 0 395.52 107.99043256063916" height="107.99043256063916" width="395.52"><g><svg viewBox="0 0 573.6335513963487 156.62149915702705" height="107.99043256063916" width="395.52"><g><rect width="6.880362786285356" height="135.99551301623185" x="153.2217677035572" y="10.312993070397596" fill="#f1f1f1" opacity="1" stroke-width="0" stroke="transparent" fill-opacity="1" class="rect-uu-0" data-fill-palette-color="primary" rx="1%" id="uu-0" data-palette-color="#f1f1f1"></rect></g><g transform="matrix(1,0,0,1,178.11355139634873,21.64595248841691)"><svg viewBox="0 0 395.52 113.32959418019323" height="113.32959418019323" width="395.52"><g><svg viewBox="0 0 395.52 113.32959418019323" height="113.32959418019323" width="395.52"><g><svg viewBox="0 0 395.52 76.2950105326512" height="76.2950105326512" width="395.52"><g transform="matrix(1,0,0,1,0,0)"><svg width="395.52" viewBox="1.3 -31.55 166.14 32.05" height="76.2950105326512" data-palette-color="#f1f1f1"><path d="M22.25-29.95L20.9-21.8Q16.1-23.25 13.88-23.25 11.65-23.25 10.83-21.3 10-19.35 10-15.13 10-10.9 10.78-8.97 11.55-7.05 13.95-7.05L13.95-7.05Q14.65-7.05 16.65-7.45L16.65-7.45 16.65-11.25 14.4-11.25 14.4-17.15 23.95-17.15 23.95 0 18.05 0 17.25-1.6 17.05-1.6Q16.2-0.9 15.7-0.55L15.7-0.55Q14.3 0.5 11.75 0.5L11.75 0.5Q1.3 0.5 1.3-15.3L1.3-15.3Q1.3-23.2 4.05-27.38 6.8-31.55 13.3-31.55L13.3-31.55Q18.5-31.55 22.25-29.95L22.25-29.95ZM44.75-31.05L50.45 0 42.1 0 41.15-4.9 35.25-4.9 34.3 0 26.35 0 32.05-31.05 44.75-31.05ZM36.35-10.75L40.2-10.75 38.45-21.85 38.1-21.85 36.35-10.75ZM82.05-31.05L83.09 0 75.25 0 75.25-16.2 74.8-16.2 71.84 0 63.8 0 61-16.2 60.5-16.2 60.5 0 52.75 0 53.8-31.05 65.05-31.05 67.84-14.25 68.25-14.25 70.95-31.05 82.05-31.05ZM104.49-7L103.99 0 87.19 0 87.19-31.05 104.49-31.05 103.99-23.4 95.74-23.4 95.74-18.75 102.89-18.75 102.89-12.15 95.74-12.15 95.74-7 104.49-7ZM119.76-27.8Q122.64-31.55 129.19-31.55 135.74-31.55 138.56-27.85 141.39-24.15 141.39-15.83 141.39-7.5 138.49-3.5 135.59 0.5 129.09 0.5 122.59 0.5 119.74-3.45 116.89-7.4 116.89-15.73 116.89-24.05 119.76-27.8ZM132.79-15.8Q132.79-20.4 132.06-22.03 131.34-23.65 129.11-23.65 126.89-23.65 126.24-22.03 125.59-20.4 125.59-15.85L125.59-15.85 125.59-14.65Q125.59-9.8 126.31-8.28 127.04-6.75 129.26-6.75 131.49-6.75 132.14-8.2 132.79-9.65 132.79-14.2L132.79-14.2 132.79-15.8ZM167.44-31.05L167.44 0 159.24 0 152.78-14.45 152.39-14.45 152.39 0 144.78 0 144.78-31.05 153.24-31.05 159.39-16.15 159.78-16.15 159.78-31.05 167.44-31.05Z" opacity="1" transform="matrix(1,0,0,1,0,0)" fill="#f1f1f1" class="undefined-text-0" data-fill-palette-color="primary" id="text-0"></path></svg></g></svg></g><g transform="matrix(1,0,0,1,0,94.30643143915736)"><svg viewBox="0 0 232.20979199999996 19.02316274103585" height="19.02316274103585" width="232.20979199999996"><g transform="matrix(1,0,0,1,0,0)"><svg width="232.20979199999996" viewBox="1.3 -32.4 401.56 32.9" height="19.02316274103585" data-palette-color="#a9a9a9"><path d="M22.25-29.95L20.9-21.8Q16.1-23.25 13.88-23.25 11.65-23.25 10.83-21.3 10-19.35 10-15.13 10-10.9 10.78-8.97 11.55-7.05 13.95-7.05L13.95-7.05Q14.65-7.05 16.65-7.45L16.65-7.45 16.65-11.25 14.4-11.25 14.4-17.15 23.95-17.15 23.95 0 18.05 0 17.25-1.6 17.05-1.6Q16.2-0.9 15.7-0.55L15.7-0.55Q14.3 0.5 11.75 0.5L11.75 0.5Q1.3 0.5 1.3-15.3L1.3-15.3Q1.3-23.2 4.05-27.38 6.8-31.55 13.3-31.55L13.3-31.55Q18.5-31.55 22.25-29.95L22.25-29.95ZM45.5-17.7L45.5-17.7 45.25-7.35Q45.25-6.4 45.72-6.08 46.2-5.75 47.35-5.75L47.35-5.75 46.6 0.3Q43.7 0.5 43.4 0.5L43.4 0.5Q39.7 0.5 38.7-2.05L38.7-2.05 38.45-2.05Q36.6 0.5 32.75 0.5L32.75 0.5Q29.8 0.5 28.22-1.4 26.65-3.3 26.65-6.6L26.65-6.6Q26.65-10.75 29.22-12.35 31.8-13.95 37.35-14.45L37.35-14.45 37.35-15.65Q37.35-17.05 35.95-17.05L35.95-17.05Q33.55-17.05 28.45-15.6L28.45-15.6 27.2-22.9Q33.6-24.55 37.85-24.55 42.1-24.55 43.8-22.9 45.5-21.25 45.5-17.7ZM35.85-5.35L35.85-5.35Q37.7-5.35 37.7-7.3L37.7-7.3 37.7-9.75Q35.85-9.5 35.07-8.97 34.3-8.45 34.3-7.2L34.3-7.2Q34.3-5.35 35.85-5.35ZM69.05-21.75L69.55-22.2Q72.3-24.55 75.59-24.55 78.9-24.55 80.22-23.03 81.55-21.5 81.55-18.45L81.55-18.45 81.55 0 73.05 0 73.05-15.6Q73.05-16.85 71.95-16.85L71.95-16.85Q70.55-16.85 69.59-16.15L69.59-16.15 69.59 0 61.1 0 61.1-15.6Q61.1-16.85 60-16.85L60-16.85Q58.6-16.85 57.65-16.15L57.65-16.15 57.65 0 49.25 0 49.25-23.95 56.9-23.95 57.4-22.2 57.6-22.2Q60.35-24.55 64.12-24.55 67.9-24.55 69.05-21.75L69.05-21.75ZM94.54-17.4L94.54-17.4Q93.24-17.4 92.84-16.53 92.44-15.65 92.44-13.85L92.44-13.85 96.79-13.85 96.79-15.05Q96.79-17.4 94.54-17.4ZM94.74-24.55L94.74-24.55Q99.89-24.55 102.12-22.08 104.34-19.6 104.34-15L104.34-15Q104.34-14.4 103.99-9.6L103.99-9.6 92.59-9.6Q92.59-5.85 96.04-5.85L96.04-5.85Q97.69-5.85 102.49-7L102.49-7 103.19-0.8Q98.99 0.5 94.79 0.5L94.79 0.5Q89.64 0.5 86.89-2.88 84.14-6.25 84.14-12.05L84.14-12.05Q84.14-24.55 94.74-24.55ZM139.09-21.2L139.09-21.2Q139.09-18.4 138.24-16.55 137.39-14.7 135.59-13.2L135.59-13.2 139.74 0 130.49 0 127.39-11.2 126.24-11.2 126.24 0 117.84 0 117.84-31.05 129.44-31.05Q134.44-31.05 136.76-28.7 139.09-26.35 139.09-21.2ZM127.54-16.45Q128.84-16.45 129.39-17.2 129.94-17.95 129.94-19.93 129.94-21.9 129.39-22.68 128.84-23.45 127.59-23.45L127.59-23.45 126.24-23.45 126.24-16.45 127.54-16.45ZM151.84-17.4L151.84-17.4Q150.54-17.4 150.14-16.53 149.74-15.65 149.74-13.85L149.74-13.85 154.09-13.85 154.09-15.05Q154.09-17.4 151.84-17.4ZM152.04-24.55L152.04-24.55Q157.19-24.55 159.41-22.08 161.64-19.6 161.64-15L161.64-15Q161.64-14.4 161.29-9.6L161.29-9.6 149.89-9.6Q149.89-5.85 153.34-5.85L153.34-5.85Q154.99-5.85 159.79-7L159.79-7 160.49-0.8Q156.29 0.5 152.09 0.5L152.09 0.5Q146.94 0.5 144.19-2.88 141.44-6.25 141.44-12.05L141.44-12.05Q141.44-24.55 152.04-24.55ZM176.33-23.95L184.48-23.95 179.38 0 167.58 0 162.43-23.95 171.23-23.95 173.38-8.6 174.03-8.6 176.33-23.95ZM194.43-23.7L194.43 0 186.18 0 186.18-23.7 194.43-23.7ZM186.83-25.6Q185.78-26.5 185.78-28.5 185.78-30.5 186.83-31.45 187.88-32.4 190.28-32.4 192.68-32.4 193.73-31.45 194.78-30.5 194.78-28.53 194.78-26.55 193.73-25.63 192.68-24.7 190.28-24.7 187.88-24.7 186.83-25.6ZM207.58-17.4L207.58-17.4Q206.28-17.4 205.88-16.53 205.48-15.65 205.48-13.85L205.48-13.85 209.83-13.85 209.83-15.05Q209.83-17.4 207.58-17.4ZM207.78-24.55L207.78-24.55Q212.93-24.55 215.15-22.08 217.38-19.6 217.38-15L217.38-15Q217.38-14.4 217.03-9.6L217.03-9.6 205.63-9.6Q205.63-5.85 209.08-5.85L209.08-5.85Q210.73-5.85 215.53-7L215.53-7 216.23-0.8Q212.03 0.5 207.83 0.5L207.83 0.5Q202.68 0.5 199.93-2.88 197.18-6.25 197.18-12.05L197.18-12.05Q197.18-24.55 207.78-24.55ZM239.43-23.95L246.83-23.95 243.78 0 234.63 0 232.68-10.1 232.33-10.1 230.43 0 221.48 0 218.43-23.95 226.13-23.95 227.18-11.85 227.58-11.85 229.28-23.95 236.23-23.95 237.88-11.85 238.33-11.85 239.43-23.95ZM282.72-31.05L290.62-31.05 287.82 0 277.52 0 274.82-13.75 274.42-13.75 272.17 0 261.82 0 258.57-31.05 266.77-31.05 268.07-14.6 268.57-14.6 270.67-31.05 279.02-31.05 281.32-14.6 281.82-14.6 282.72-31.05ZM303.12-17.4L303.12-17.4Q301.82-17.4 301.42-16.53 301.02-15.65 301.02-13.85L301.02-13.85 305.37-13.85 305.37-15.05Q305.37-17.4 303.12-17.4ZM303.32-24.55L303.32-24.55Q308.47-24.55 310.69-22.08 312.92-19.6 312.92-15L312.92-15Q312.92-14.4 312.57-9.6L312.57-9.6 301.17-9.6Q301.17-5.85 304.62-5.85L304.62-5.85Q306.27-5.85 311.07-7L311.07-7 311.77-0.8Q307.57 0.5 303.37 0.5L303.37 0.5Q298.22 0.5 295.47-2.88 292.72-6.25 292.72-12.05L292.72-12.05Q292.72-24.55 303.32-24.55ZM328.02-24.5Q332.72-24.5 334.27-21.78 335.82-19.05 335.82-12.43 335.82-5.8 334.17-2.65 332.52 0.5 327.72 0.5L327.72 0.5Q323.97 0.5 322.47-1.45L322.47-1.45 322.27-1.45 321.77 0 315.22 0 315.22-32.05 323.57-32.05 323.57-23.4 323.77-23.4Q325.42-24.5 328.02-24.5L328.02-24.5ZM327.14-7.53Q327.32-8.4 327.37-9.25 327.42-10.1 327.42-12.48 327.42-14.85 327.07-16.13 326.72-17.4 325.64-17.4 324.57-17.4 323.52-16.8L323.52-16.8 323.52-6.45Q324.47-6 325.34-6 326.22-6 326.59-6.33 326.97-6.65 327.14-7.53ZM337.21-16.88Q337.21-20.5 339.44-22.53 341.66-24.55 345.56-24.55 349.46-24.55 353.46-23.55L353.46-23.55 352.61-16.6Q347.51-17.75 345.76-17.75L345.76-17.75Q344.71-17.75 344.71-16.9L344.71-16.9Q344.71-16.35 345.86-15.9L345.86-15.9Q349.86-14.45 351.89-12.6 353.91-10.75 353.91-7.05 353.91-3.35 352.01-1.43 350.11 0.5 346.19 0.5 342.26 0.5 338.36-0.5L338.36-0.5 338.91-7.25Q343.91-5.9 345.39-5.9 346.86-5.9 346.86-6.6 346.86-7.3 345.76-7.7L345.76-7.7Q341.31-9.4 339.26-11.33 337.21-13.25 337.21-16.88ZM364.06-23.7L364.06 0 355.81 0 355.81-23.7 364.06-23.7ZM356.46-25.6Q355.41-26.5 355.41-28.5 355.41-30.5 356.46-31.45 357.51-32.4 359.91-32.4 362.31-32.4 363.36-31.45 364.41-30.5 364.41-28.53 364.41-26.55 363.36-25.63 362.31-24.7 359.91-24.7 357.51-24.7 356.46-25.6ZM380.96-6.6L380.71 0.05Q377.01 0.5 374.28 0.5 371.56 0.5 370.03-0.93 368.51-2.35 368.51-5.85L368.51-5.85 368.51-17.45 366.11-17.45 366.11-23.65 368.91-23.65 369.36-28.25 376.91-28.25 376.91-23.65 381.36-23.65 381.01-17.45 376.86-17.45 376.86-7.5Q376.86-6.45 377.86-6.45L377.86-6.45Q377.96-6.45 380.96-6.6L380.96-6.6ZM393.06-17.4L393.06-17.4Q391.76-17.4 391.36-16.53 390.96-15.65 390.96-13.85L390.96-13.85 395.31-13.85 395.31-15.05Q395.31-17.4 393.06-17.4ZM393.26-24.55L393.26-24.55Q398.41-24.55 400.63-22.08 402.86-19.6 402.86-15L402.86-15Q402.86-14.4 402.51-9.6L402.51-9.6 391.11-9.6Q391.11-5.85 394.56-5.85L394.56-5.85Q396.21-5.85 401.01-7L401.01-7 401.71-0.8Q397.51 0.5 393.31 0.5L393.31 0.5Q388.16 0.5 385.41-2.88 382.66-6.25 382.66-12.05L382.66-12.05Q382.66-24.55 393.26-24.55Z" opacity="1" transform="matrix(1,0,0,1,0,0)" fill="#a9a9a9" class="undefined-text-1" data-fill-palette-color="secondary" id="text-1"></path></svg></g></svg></g></svg></g></svg></g><g><svg viewBox="0 0 135.21034679705102 156.62149915702705" height="156.62149915702705" width="135.21034679705102"><g><svg xmlns="http://www.w3.org/2000/svg" xmlns:xlink="http://www.w3.org/1999/xlink" version="1.1" x="0" y="0" viewBox="9.638 3.247 80.72399999999999 93.507" enable-background="new 0 0 100 100" xml:space="preserve" height="156.62149915702705" width="135.21034679705102" class="icon-icon-0" data-fill-palette-color="accent" id="icon-0"><g fill="#e30e30" data-fill-palette-color="accent"><g fill="#e30e30" data-fill-palette-color="accent"><polygon points="36.703,11.011 9.638,26.636 9.638,38.757 36.703,23.131 63.767,38.757 63.767,26.636   " fill="#e30e30" data-fill-palette-color="accent"></polygon></g><g fill="#e30e30" data-fill-palette-color="accent"><polygon points="63.298,89.092 36.233,73.467 36.233,61.348 63.298,76.973 90.362,61.348 90.362,73.467   " fill="#e30e30" data-fill-palette-color="accent"></polygon></g><g fill="#e30e30" data-fill-palette-color="accent"><polygon points="9.638,42.012 36.703,26.386 47.198,32.446 20.134,48.072 20.134,79.324 9.638,73.264   " fill="#e30e30" data-fill-palette-color="accent"></polygon></g><g fill="#e30e30" data-fill-palette-color="accent"><polygon points="77.083,18.872 50.018,3.247 39.522,9.307 66.586,24.932 66.586,56.184 77.083,50.124   " fill="#e30e30" data-fill-palette-color="accent"></polygon></g><g fill="#e30e30" data-fill-palette-color="accent"><polygon points="23.01,81.127 23.011,49.876 33.507,43.816 33.507,75.068 60.571,90.693 50.075,96.754   " fill="#e30e30" data-fill-palette-color="accent"></polygon></g><g fill="#e30e30" data-fill-palette-color="accent"><polygon points="90.362,58.092 90.362,26.84 79.866,20.78 79.866,52.031 52.802,67.658 63.298,73.719   " fill="#e30e30" data-fill-palette-color="accent"></polygon></g></g></svg></g></svg></g></svg></g><defs></defs></svg><rect width="395.52" height="107.99043256063916" fill="none" stroke="none" visibility="hidden"></rect></g></svg></g></svg>