<svg width="1632" height="758" xmlns="http://www.w3.org/2000/svg" xmlns:xlink="http://www.w3.org/1999/xlink" overflow="hidden"><defs><clipPath id="clip0"><rect x="0" y="0" width="1632" height="758"/></clipPath></defs><g clip-path="url(#clip0)"><rect x="0" y="0" width="1632" height="757.667" fill="#2D2D2D"/><path d="M91.5001 295.37C91.5001 163.432 198.504 56.4752 330.5 56.4752 462.496 56.4752 569.5 163.432 569.5 295.37 569.5 427.308 462.496 534.265 330.5 534.265 198.504 534.265 91.5001 427.308 91.5001 295.37Z" stroke="#FFFFFF" stroke-width="93.3333" stroke-miterlimit="8" fill="#2D2D2D" fill-rule="evenodd"/><path d="M330.5 295.37 597.288 295.37" stroke="#FFFFFF" stroke-width="93.3333" stroke-miterlimit="8" fill="#2D2D2D" fill-rule="evenodd"/><rect x="672" y="356.843" width="953" height="283.875" fill="#2D2D2D"/><text fill="#FFFFFF" font-family="Franklin Gothic Demi Cond,Franklin Gothic Demi Cond_MSFontService,sans-serif" font-weight="600" font-stretch="condensed" font-size="227" transform="matrix(1 0 0 0.99956 681.6 582)">GAME<tspan font-size="227" x="624" y="0">ON</tspan></text><rect x="41" y="640.718" width="1545" height="106.953" fill="#2D2D2D"/><text fill="#9B9B9B" font-family="Franklin Gothic Demi Cond,Franklin Gothic Demi Cond_MSFontService,sans-serif" font-weight="700" font-stretch="condensed" font-size="80" transform="matrix(1 0 0 0.99956 50.9333 723)">G <tspan font-size="80" x="91.3333" y="0">A   </tspan><tspan font-size="80" x="177.333" y="0">M </tspan><tspan font-size="80" x="282.333" y="0">E </tspan><tspan font-size="80" x="528" y="0">R  </tspan><tspan font-size="80" x="616.667" y="0">E   </tspan><tspan font-size="80" x="699.833" y="0">V </tspan><tspan font-size="80" x="781.667" y="0">I </tspan><tspan font-size="80" x="848.5" y="0">E </tspan><tspan font-size="80" x="931.667" y="0">W </tspan><tspan font-size="80" x="1248" y="0">S </tspan><tspan font-size="80" x="1334" y="0">I </tspan><tspan font-size="80" x="1400.83" y="0">T   </tspan><tspan font-size="80" x="1477.17" y="0">E</tspan></text><path d="M52.5001 634.221 1572.5 634.221" stroke="#FF4141" stroke-width="6.66667" stroke-miterlimit="8" fill="#2D2D2D" fill-rule="evenodd"/></g></svg>